<svg xmlns="http://www.w3.org/2000/svg" viewBox="0 0 74.1 73.72"><defs><style>.cls-1{fill:none;stroke:#1f92fd;stroke-miterlimit:10;stroke-width:20px;}.cls-2{fill:#fbb03b;}</style></defs><g id="图层_2" data-name="图层 2"><g id="图层_1-2" data-name="图层 1"><path class="cls-1" d="M10.51,57.11C11.13,79.18,10,38.88,10,38.88,10,19.76,21.06,10,42.39,10c0,0,43.68.45,7.12.11"/><path class="cls-2" d="M67.75,37.68a9.4,9.4,0,0,1-3.5.31c-.35,0-.68-.07-.94-.12a9.23,9.23,0,0,1-3-1.14c-1.2-.62-2-1.59-3.11-2.13a14.07,14.07,0,0,0-6.29-1.38q-6.48,0-10.21,4A15.43,15.43,0,0,0,36.31,48a15.93,15.93,0,0,0,4.37,11q3.74,4,10.21,4a16,16,0,0,0,9.19-2.49l-.2.16c3.15-2.13,1.65-6.77-2.3-6.77H54.19c-2.32,0-5.32-2.62-5.62-4.76L48.65,48c.3-2,3.22-4.25,5.54-4.25L69,43.59l1,.09c.43.07.38-.26,2,1,1.44,1.08,1.51,6.71,1.59,7.65a67.15,67.15,0,0,1,.09,7.43c-.34,3.56.11.89-.45,3.67-1.28,6.42-13.52,9.64-22.27,9.64a34,34,0,0,1-11.46-1.78,25.58,25.58,0,0,1-9-5.45,24.95,24.95,0,0,1-7.93-18.28,24.38,24.38,0,0,1,2-10,24.7,24.7,0,0,1,6.05-8.25,27.22,27.22,0,0,1,9.14-5.39A33.16,33.16,0,0,1,50.89,22a31.9,31.9,0,0,1,13.79,2.83c2.48,1.17,5.19,2.64,6.48,5,.88,1.58.8,4.64-.72,6.16h0A7.22,7.22,0,0,1,68,37.62Z"/></g></g></svg>